<?xml version="1.0" encoding="UTF-8"?>
<svg id="Capa_2" data-name="Capa 2" xmlns="http://www.w3.org/2000/svg" viewBox="0 0 569.02 181.11">
  <defs>
    <style>
      .cls-1 {
        fill: #fff;
      }
    </style>
  </defs>
  <g id="Capa_1-2" data-name="Capa 1">
    <g>
      <path class="cls-1" d="M308.46,119.61c13,3.88,44.11,2.4,51.01,17.27,4.67,10.07.9,21.04-6.84,28.49-11.26,10.83-25.89,15.93-41.62,15.74-9.24-.11-18.05-1.7-25.49-6.93-4.84-3.41-8.28-8.03-8.73-13.3-1.17-13.9,12.88-20.42,23.32-28.14-5.29-2.68-8.46-5.86-9.37-9.91-1.14-5.08.84-9.68,5.11-12.24l11.78-7.08c-12.93-3.23-22.27-12.17-22.9-24.54-.75-14.79,7.65-26.7,21.39-30.72,8.75-2.56,16.69-1.6,25.45.12s18.68-.6,28.04.63c.63,1.93.42,4.34-.09,6.35l-16.83.69c7.66,5.92,10.81,14.42,10.05,24.09-1.31,16.5-18.95,26.18-36.72,24.69-5.46-.46-12.05,1.29-13.69,7.11-1.01,3.58,2.9,6.72,6.1,7.68ZM330.84,57.42c-2.8-5.85-7.39-9.14-13.41-9.09-5.24.04-10.93,3.45-12.91,9.41-5.72,17.17-1.29,47.29,16.96,45.41,18.16-1.87,15.74-32.41,9.36-45.73ZM349.05,147.2c-6.36-9.6-36.08-9.66-45.88-13.55-7.33,5.03-12.94,12.76-12.46,22.09,1.05,20.36,32.25,23.04,50.85,13.98,8.65-4.21,13.01-14.19,7.49-22.52Z"/>
      <path class="cls-1" d="M428.31,73.22c0-5.24-1.76-10.53-5.19-13.66-8.33-7.59-25.58-1.47-32.08,7.4l-.49,53.74c-.03,3.37,1.59,6.34,3.4,8.49,2.23,2.64,6.17.51,9.29,3.58l-41.67-.04c3.41-2.99,6.89-1.3,9.14-3.76,1.86-2.04,3.46-4.88,3.46-8.44l.1-102.57c0-6.52-4.17-10.34-10.41-10.16-.51.01-1.25-.45-1.48-.69-2.81-2.88,23.78-4.26,28.12-7.11l.25,62.8c7.18-4.66,11.96-10.43,19.4-13.48,9.63-3.94,21-4.09,28.62,3.73,3.91,4.02,6.06,10.59,6.08,16.33l.19,52.41c.05,12.52,15.2,7.86,11,11.48l-40.39-.68,8.61-2.94c2.9-.99,4.07-5.15,4.07-8.91l-.02-47.53Z"/>
      <path class="cls-1" d="M169.3,105.63c1.65,1.02-10.36,28.13-30.13,29.39-4.37.28-8.47-1.14-10.71-4.12s-3.42-7.52-2.28-11.72l14.94-54.88c.65-2.4.01-5.21-1.15-6.67-5.1-6.41-18.56,4.48-23.44,9.74-11.03,11.89-19.38,26.09-24.26,41.72-2.47,7.9-3.14,15.74-6.39,23.37-5.15.31-10.22.33-16.26.05l17.55-70.08c.63-2.52-.38-5.38-1.3-6.77-2.76-4.19-12.07-.72-10.63-4.22l32.93-5.41c-3.43,13.72-7.86,26.45-12.34,39.8-.45,1.34-.5,2.91,1.01,3.03,9.2-16.75,27.32-41.68,47.28-42.31,6.33-.2,11.4,3.08,12.72,9.36,1.11,5.28.48,10.63-1.05,15.98l-13.33,46.73c-.82,2.89.32,6.01,2.33,7.07,11.02,5.81,22.92-21.05,24.51-20.07Z"/>
      <path class="cls-1" d="M175.69,132.47c-2.19.68-3.06-.05-1.97-1.72.4-9.11-2.55-17.65.21-26.98,2.61,9.69,5.24,17.81,12.33,23.84,8.03,6.83,19.53,7.95,28.17,1.63,4.01-2.93,5.88-8.19,5.69-12.78-.77-18.07-32.97-20.42-42.37-34.14-4.83-7.05-4.59-15.71-.36-23.52,9.15-16.87,35.37-12.1,50.23-9.11-.15,7.89,1.34,14.71-.54,22.63-3.4-5.88-3.94-11.13-7.57-15.79-6.51-8.34-17.59-10.93-26.4-4.86-4.46,3.08-6.13,8.2-5.87,13,.28,5.13,3.79,9.12,8.6,11.65l24.78,13c8.13,4.27,13.1,11.2,13.24,19.98.32,20.09-22.13,27.85-37.85,25.8l-20.33-2.64Z"/>
      <path class="cls-1" d="M558.16,130.28c-7.96,4.77-16.67,5.86-25.38,4.76l-21.83-2.75c-.98-9.56-2.53-18.43-2.12-28.09,5.09,9.31,7.06,17.24,14.16,23.39,7.54,6.53,18.41,8.09,26.8,2.3,4.29-2.97,5.72-7.76,5.6-12.61-.49-19.65-38.31-20.84-44.97-38.57-2.57-6.85-2.12-14.01,1.81-20.77,7.16-12.3,25.32-12.61,37.76-8.87,3.2.96,5.23-.13,9.12-1.72.25,8.81,2.51,16.01,1.57,25.13-3.78-6.11-5.06-11.96-9.61-16.85-6.51-6.98-16.17-9.56-24.54-4.09-4.18,2.73-5.57,7.76-5.39,12.7.16,4.49,3.34,8.88,8.08,11.44l26.45,14.3c7.51,4.06,12.89,10.61,13.31,18.71s-3.08,16.93-10.82,21.58Z"/>
      <path class="cls-1" d="M480.59,116.08c.01,4.76,2.26,8.68,5.98,10.22,8.14,3.36,14.78-1.8,19.4-8.32-1.04,11.86-12.78,17.37-23.06,17.44-10.53.07-18.92-7.01-18.96-17.71l-.22-62.52c-4.69-1.19-8.31,1.07-12.4-1.54,14.06-5.77,22.93-15.58,27.69-30.39,3.15,9.03.05,17.11,1.58,26.32l22.03.91c.99.04.76,3.52-.11,4.3l-22.11.47.19,60.83Z"/>
      <path class="cls-1" d="M283.95,132.95l-42.47-.63c6.9-2.06,11.44-4.12,11.45-11.01v-57.84c.01-3.14-1.76-6.18-3.39-7.69-2.61-2.41-6.03-1.47-9.97-2.9,5.47-1.55,23.49-6.81,29.8-6.21l.25,74.98c.04,11.08,12.13,8.03,14.33,11.31Z"/>
      <ellipse class="cls-1" cx="263.41" cy="16.76" rx="10.3" ry="10.3"/>
      <g>
        <path class="cls-1" d="M0,132.43c1.82-3.26,5.07-2.1,7.57-2.87,6.22-1.92,10.2-5.96,11.6-12.42l12.87-59.45,20.42-9.51-13.86,68.4c-1,15.01,11.69,11.15,15.26,15.79l-53.86.06Z"/>
        <path class="cls-1" d="M55.61,37.16c-6.71,4.23-13.5,7.38-20.98,10.1l4.22-23.28c2.73-15.06-13.69-12.91-16.3-17.57l56.12-.07c.75,5.08-15.68-.92-19.11,14.21l-3.95,16.62Z"/>
      </g>
    </g>
  </g>
</svg>